<svg width="38" height="38" fill="none" xmlns="http://www.w3.org/2000/svg"><circle cx="19" cy="19" r="19" fill="#FF9205"/><path d="M23.574 21.962c-1.068.578-2.537.807-3.507.893l.815.684 2.973 2.533c1.087.949-.682 2.433-1.781 1.517a553.474 553.474 0 00-2.973-2.543l-2.973 2.54c-1.099.912-2.868-.585-1.769-1.518.756-.644 1.835-1.573 2.973-2.532l.803-.684c-.959-.086-2.451-.302-3.53-.893-1.27-.697-1.828-1.105-1.337-1.958.288-.485 1.08-.893 2.127-.19 0 0 1.415.96 3.698.96 2.284 0 3.698-.96 3.698-.96 1.048-.7 1.835-.295 2.127.19.483.853-.074 1.261-1.344 1.961zm-9.538-6.78c0-2.38 2.271-4.306 5.053-4.306s5.054 1.925 5.054 4.305c0 2.37-2.272 4.295-5.054 4.295-2.782 0-5.053-1.925-5.053-4.295zm2.571 0c0 1.164 1.115 2.114 2.482 2.114 1.368 0 2.482-.95 2.482-2.115 0-1.175-1.114-2.124-2.482-2.124-1.367 0-2.482.95-2.482 2.124z" fill="#fff"/></svg>