<svg width="38" height="38" fill="none" xmlns="http://www.w3.org/2000/svg"><circle cx="19" cy="19" r="19" fill="#C4302B"/><path d="M26.666 14.19c-.184-.862-.727-1.54-1.415-1.771C24.003 12 19 12 19 12s-5.003 0-6.251.419c-.689.23-1.23.91-1.415 1.771C11 15.754 11 19.014 11 19.014s0 3.26.334 4.824c.184.862.726 1.513 1.415 1.743C13.997 26 19 26 19 26s5.003 0 6.251-.419c.688-.23 1.23-.881 1.415-1.743.334-1.563.334-4.824.334-4.824s0-3.26-.334-4.823zm-9.302 7.785v-5.921l4.181 2.96-4.181 2.96z" fill="#fff"/></svg>