<svg width="38" height="38" fill="none" xmlns="http://www.w3.org/2000/svg"><circle cx="19" cy="19" r="19" fill="#0BA8F6"/><path d="M27.12 20.702c.11-.507.178-1.047.178-1.587 0-4.112-3.488-7.437-7.792-7.437-.566 0-1.128.061-1.663.17A4.345 4.345 0 0015.251 11C12.905 11 11 12.819 11 15.058c0 .93.33 1.786.884 2.47a7.545 7.545 0 00-.178 1.587c0 4.113 3.488 7.438 7.792 7.438a8.39 8.39 0 001.662-.17 4.364 4.364 0 002.589.844c2.346 0 4.251-1.819 4.251-4.058a3.881 3.881 0 00-.88-2.467zm-7.387 3.315c-2.49 0-4.573-1.058-4.573-2.355 0-.58.341-1.108 1.12-1.108 1.184 0 1.294 1.627 3.343 1.627.976 0 1.606-.414 1.606-.953 0-.678-.607-.783-1.594-1.015-2.373-.558-4.471-.797-4.471-3.159 0-2.145 2.224-2.938 4.14-2.938 2.092 0 4.206.793 4.206 2.007 0 .612-.433 1.152-1.15 1.152-1.074 0-1.108-1.214-2.847-1.214-.975 0-1.594.254-1.594.815 0 .718.79.79 2.623 1.196 1.571.337 3.442.971 3.442 2.811 0 2.142-2.167 3.134-4.25 3.134z" fill="#fff"/></svg>