<svg width="58" height="58" fill="none" xmlns="http://www.w3.org/2000/svg"><path d="M28.75 56C43.524 56 55.5 44.024 55.5 29.25S43.524 2.5 28.75 2.5 2 14.476 2 29.25 13.976 56 28.75 56z" fill="#fff" stroke="url(#paint0_linear)" stroke-width="4"/><path d="M22.926 36.188c-.534-.533-.255-.383-1.542-.727-.584-.157-1.097-.457-1.561-.818l-2.785 6.829a.982.982 0 00.947 1.352l3.235-.123 2.224 2.35a.982.982 0 001.622-.305l3.195-7.834a4.456 4.456 0 01-2.167.588 4.452 4.452 0 01-3.168-1.312zm17.536 5.284l-2.785-6.829c-.464.361-.977.661-1.56.818-1.294.346-1.01.195-1.543.727a4.453 4.453 0 01-3.168 1.312 4.463 4.463 0 01-2.168-.588l3.195 7.834a.982.982 0 001.623.304l2.225-2.35 3.234.124a.982.982 0 00.947-1.352zm-7.354-6.673c.938-.954 1.046-.872 2.381-1.236a2.495 2.495 0 001.748-1.779c.46-1.743.34-1.533 1.593-2.808a2.546 2.546 0 00.64-2.43c-.459-1.742-.46-1.499 0-3.243a2.546 2.546 0 00-.64-2.43c-1.253-1.275-1.134-1.065-1.593-2.808a2.495 2.495 0 00-1.748-1.779c-1.711-.467-1.505-.345-2.759-1.62a2.443 2.443 0 00-2.387-.652c-1.71.467-1.472.467-3.186 0a2.441 2.441 0 00-2.387.651c-1.253 1.276-1.047 1.154-2.759 1.622a2.492 2.492 0 00-1.747 1.778c-.459 1.743-.34 1.533-1.593 2.809a2.545 2.545 0 00-.64 2.43c.459 1.74.46 1.497 0 3.242a2.548 2.548 0 00.64 2.43c1.253 1.275 1.134 1.065 1.593 2.808a2.495 2.495 0 001.747 1.779c1.374.374 1.477.316 2.38 1.236a2.44 2.44 0 003.054.358 2.435 2.435 0 012.61 0c.976.617 2.241.47 3.053-.358zM22.96 24.73c0-3.254 2.593-5.893 5.791-5.893 3.198 0 5.791 2.639 5.791 5.894 0 3.255-2.593 5.894-5.791 5.894-3.198 0-5.79-2.639-5.79-5.894z" fill="#A15B77"/><defs><linearGradient id="paint0_linear" x1="48.532" y1="10.087" x2="18.52" y2="59.036" gradientUnits="userSpaceOnUse"><stop stop-color="#6E58B8"/><stop offset="1" stop-color="#B75D5D"/></linearGradient></defs></svg>