<svg width="58" height="58" fill="none" xmlns="http://www.w3.org/2000/svg"><path d="M28.75 55.5c14.774 0 26.75-11.976 26.75-26.75S43.524 2 28.75 2 2 13.976 2 28.75 13.976 55.5 28.75 55.5z" fill="#fff" stroke="url(#paint0_linear)" stroke-width="4"/><path d="M28.5 20.34l-10.623 9.786c-.078.074-.179.109-.265.17v9.392c0 .215.082.422.227.574a.761.761 0 00.55.238h20.222a.761.761 0 00.55-.238.83.83 0 00.228-.575v-9.389c-.083-.059-.18-.092-.256-.162L28.5 20.34zm4.667 13.254a.416.416 0 01-.114.287.38.38 0 01-.275.12h-2.722v2.843a.416.416 0 01-.114.287.38.38 0 01-.275.12h-2.333a.38.38 0 01-.275-.12.416.416 0 01-.114-.287V34h-2.723a.38.38 0 01-.274-.119.416.416 0 01-.114-.287v-2.438c0-.107.04-.21.114-.287a.38.38 0 01.274-.119h2.723v-2.843c0-.108.04-.212.114-.288a.38.38 0 01.275-.119h2.333c.103 0 .202.043.275.12a.412.412 0 01.114.287v2.843h2.722a.38.38 0 01.275.12.412.412 0 01.114.286v2.438zm9.075-7.095L29.8 15.023a1.892 1.892 0 00-1.3-.523c-.48 0-.943.186-1.299.523L14.758 26.498a.843.843 0 00-.059 1.148l1.041 1.21a.782.782 0 00.537.268.747.747 0 00.562-.207l11.147-10.272a.759.759 0 01.514-.204.76.76 0 01.515.204l11.147 10.271a.77.77 0 00.562.207.753.753 0 00.537-.268l1.04-1.21a.835.835 0 00-.06-1.147z" fill="#A15B77"/><defs><linearGradient id="paint0_linear" x1="48.532" y1="9.587" x2="18.52" y2="58.536" gradientUnits="userSpaceOnUse"><stop stop-color="#6E58B8"/><stop offset="1" stop-color="#B75D5D"/></linearGradient></defs></svg>