<svg width="58" height="58" fill="none" xmlns="http://www.w3.org/2000/svg"><path d="M28.75 56C43.524 56 55.5 44.024 55.5 29.25S43.524 2.5 28.75 2.5 2 14.476 2 29.25 13.976 56 28.75 56z" fill="#fff" stroke="url(#paint0_linear)" stroke-width="4"/><path d="M37.925 38.875h-18.85c-.399 0-.725.352-.725.781v1.563c0 .43.326.781.725.781h18.85c.399 0 .725-.352.725-.781v-1.563c0-.43-.326-.781-.725-.781zm2.9-15.625c-1.2 0-2.175 1.05-2.175 2.344 0 .346.072.669.2.966l-3.281 2.12c-.698.449-1.6.195-2.003-.567l-3.693-6.963c.485-.43.802-1.074.802-1.806 0-1.294-.974-2.344-2.175-2.344-1.2 0-2.175 1.05-2.175 2.344 0 .732.317 1.377.802 1.806l-3.693 6.963c-.403.762-1.31 1.016-2.003.567l-3.276-2.12c.122-.292.2-.62.2-.966 0-1.294-.975-2.344-2.175-2.344-1.201 0-2.18 1.05-2.18 2.344 0 1.294.974 2.343 2.175 2.343.118 0 .236-.019.349-.039l3.276 9.415h17.4l3.276-9.415c.113.02.231.04.349.04 1.2 0 2.175-1.05 2.175-2.344 0-1.294-.974-2.344-2.175-2.344z" fill="#A15B77"/><defs><linearGradient id="paint0_linear" x1="48.532" y1="10.087" x2="18.52" y2="59.036" gradientUnits="userSpaceOnUse"><stop stop-color="#6E58B8"/><stop offset="1" stop-color="#B75D5D"/></linearGradient></defs></svg>