<svg width="821" height="285" fill="none" xmlns="http://www.w3.org/2000/svg"><path d="M10.965 206.626l100.438-85.238c9.326-7.611 13.99-15.475 13.99-23.593 0-5.327-1.674-9.767-5.022-13.318-3.109-3.806-7.653-5.708-13.631-5.708-6.935 0-12.675 2.917-17.218 8.752-4.544 5.835-7.055 13.699-7.533 23.593L.562 101.22C3.671 68.241 15.987 43.126 37.51 25.876 59.032 8.626 84.5 0 113.914 0c13.153 0 25.588 1.649 37.305 4.947 11.718 3.298 22.48 8.371 32.284 15.22 10.044 6.597 17.936 15.73 23.675 27.399 5.978 11.67 8.968 25.114 8.968 40.335 0 13.953-2.631 26.637-7.892 38.053-5.022 11.162-10.642 19.914-16.859 26.256-6.218 6.342-14.468 13.319-24.751 20.929l-37.306 28.159h87.525v75.725H10.965v-70.397zm400.747 68.875c-13.87 6.088-29.773 9.132-47.709 9.132-17.935 0-33.838-3.044-47.708-9.132-13.631-6.342-24.631-14.333-33.001-23.973-8.131-9.64-14.827-21.056-20.088-34.248-5.021-13.191-8.489-25.875-10.402-38.052-1.913-12.431-2.87-25.242-2.87-38.433 0-13.192.957-25.749 2.87-37.672 1.913-12.177 5.381-24.735 10.402-37.673 5.261-12.937 11.957-24.1 20.088-33.486 8.37-9.386 19.37-16.997 33.001-22.831C330.165 3.044 346.068 0 364.003 0c17.936 0 33.839 3.044 47.709 9.133 13.87 5.834 24.87 13.445 33.001 22.831 8.13 9.386 14.826 20.549 20.087 33.486 5.261 12.938 8.729 25.496 10.403 37.673 1.913 11.923 2.87 24.48 2.87 37.672 0 13.191-.957 26.002-2.87 38.433-1.674 12.177-5.142 24.861-10.403 38.052-5.261 13.192-11.957 24.608-20.087 34.248-8.131 9.64-19.131 17.631-33.001 23.973zM389.83 140.795c0-41.858-8.609-62.787-25.827-62.787-17.218 0-25.827 20.929-25.827 62.787 0 43.38 8.609 65.069 25.827 65.069 17.218 0 25.827-21.689 25.827-65.069zM510.976 283.28c-7.546 0-13.87-.676-18.972-2.029l2.392-32.641c1.913.677 4.145 1.015 6.696 1.015 2.125 0 3.932-.338 5.42-1.015 1.488-.676 3.029-2.086 4.623-4.228 1.595-2.142 2.764-5.637 3.508-10.485.85-4.849 1.275-10.993 1.275-18.435v-53.104h97.25v119.738h-37.943v-86.083h-22.958v13.53c0 14.432-.85 26.496-2.55 36.192-1.701 9.584-4.358 17.138-7.972 22.663-3.613 5.411-7.865 9.245-12.754 11.5-4.889 2.255-10.894 3.382-18.015 3.382zm123.249-1.184V162.358h77.64v33.486h-41.929v10.316h39.378v31.288h-39.378v11.162h44.639v33.486h-80.35zm114.394 0v-85.745h-27.74v-33.993h93.423v33.993h-27.74v85.745h-37.943z" fill="#E4E4E4"/><path d="M516.654 118.893h173.5c8.56 0 15.5 6.94 15.5 15.5 0 8.561-6.94 15.5-15.5 15.5h-173.5v-31z" fill="#E92E2E"/><path d="M531.975 139.893h1.321v-3.984h2.386c2.541 0 3.686-1.545 3.686-3.473s-1.145-3.452-3.707-3.452h-3.686v10.909zm1.321-5.156v-4.581h2.322c1.774 0 2.45.97 2.45 2.28 0 1.31-.676 2.301-2.429 2.301h-2.343zm10.437 5.348c1.428 0 2.174-.767 2.429-1.3h.064v1.108h1.257v-5.39c0-2.6-1.981-2.898-3.025-2.898-1.236 0-2.642.426-3.282 1.918l1.194.426c.277-.597.932-1.236 2.13-1.236 1.156 0 1.726.612 1.726 1.662v.042c0 .608-.618.554-2.109.746-1.518.197-3.175.533-3.175 2.408 0 1.598 1.236 2.514 2.791 2.514zm.192-1.129c-1.001 0-1.726-.448-1.726-1.321 0-.959.874-1.257 1.854-1.385.533-.064 1.96-.213 2.173-.469v1.151c0 1.022-.809 2.024-2.301 2.024zm11.925-10.313c-.399.336-.996.336-1.832.331-.272 0-.57 0-.895.01-2.493.064-3.729 1.96-3.729 5.604v.873c0 3.026 1.47 4.603 3.665 4.603 2.189 0 3.643-1.588 3.643-4.155 0-2.578-1.475-3.942-3.387-3.942-1.124 0-2.174.469-2.728 1.492h-.106c.17-2.11.959-3.239 2.663-3.303 1.513-.064 2.6-.021 3.345-.746l-.639-.767zm-2.791 10.292c-1.491 0-2.408-1.194-2.408-3.026.027-1.79.927-2.813 2.387-2.813 1.497 0 2.407 1.023 2.407 2.813 0 1.843-.905 3.026-2.386 3.026zm8.89 1.129c2.216 0 3.708-1.683 3.708-4.219 0-2.557-1.492-4.24-3.708-4.24s-3.707 1.683-3.707 4.24c0 2.536 1.491 4.219 3.707 4.219zm0-1.129c-1.683 0-2.45-1.449-2.45-3.09 0-1.641.767-3.111 2.45-3.111 1.684 0 2.451 1.47 2.451 3.111 0 1.641-.767 3.09-2.451 3.09zm4.557-6.052h2.706v7.01h1.257v-7.01h2.685v-1.172h-6.648v1.172zm10.465 7.202c1.427 0 2.173-.767 2.429-1.3h.063v1.108h1.258v-5.39c0-2.6-1.982-2.898-3.026-2.898-1.236 0-2.642.426-3.281 1.918l1.193.426c.277-.597.932-1.236 2.131-1.236 1.156 0 1.725.612 1.725 1.662v.042c0 .608-.617.554-2.109.746-1.518.197-3.175.533-3.175 2.408 0 1.598 1.236 2.514 2.792 2.514zm.191-1.129c-1.001 0-1.725-.448-1.725-1.321 0-.959.873-1.257 1.853-1.385.533-.064 1.96-.213 2.173-.469v1.151c0 1.022-.809 2.024-2.301 2.024zm9.283 1.108c1.662 0 2.877-.831 3.26-2.067l-1.214-.341c-.32.852-1.06 1.279-2.046 1.279-1.475 0-2.492-.954-2.551-2.706h5.939v-.533c0-3.047-1.811-4.091-3.515-4.091-2.216 0-3.686 1.747-3.686 4.261 0 2.515 1.448 4.198 3.813 4.198zm-2.551-4.922c.085-1.273.985-2.408 2.424-2.408 1.363 0 2.237 1.023 2.237 2.408h-4.661zm12.326 3.047l-2.813-6.478h-1.661v8.182h1.257v-6.376l2.706 6.376h1.022l2.706-6.259v6.259h1.257v-8.182h-1.619l-2.855 6.478zm14.318 1.875c1.811 0 3.004-1.108 3.217-2.557h-1.257c-.234.895-.98 1.428-1.96 1.428-1.491 0-2.45-1.236-2.45-3.133 0-1.853.98-3.068 2.45-3.068 1.108 0 1.769.682 1.96 1.428h1.257c-.213-1.534-1.512-2.557-3.238-2.557-2.216 0-3.686 1.747-3.686 4.24 0 2.45 1.406 4.219 3.707 4.219zm9.253-.171h6.882v-1.172h-5.071v-.085l2.45-2.621c1.875-2.008 2.429-2.945 2.429-4.154 0-1.684-1.364-3.026-3.281-3.026-1.913 0-3.367 1.3-3.367 3.217h1.257c0-1.241.805-2.066 2.067-2.066 1.183 0 2.088.724 2.088 1.875 0 1.006-.591 1.752-1.854 3.132l-3.6 3.942v.958zm12.64.149c2.408 0 3.793-2.04 3.793-5.603 0-3.537-1.407-5.604-3.793-5.604s-3.793 2.067-3.793 5.604c0 3.563 1.385 5.603 3.793 5.603zm0-1.171c-1.587 0-2.514-1.593-2.514-4.432 0-2.834.937-4.453 2.514-4.453 1.577 0 2.514 1.619 2.514 4.453 0 2.839-.927 4.432-2.514 4.432zm9.375 1.171c2.408 0 3.793-2.04 3.793-5.603 0-3.537-1.407-5.604-3.793-5.604s-3.793 2.067-3.793 5.604c0 3.563 1.385 5.603 3.793 5.603zm0-1.171c-1.587 0-2.514-1.593-2.514-4.432 0-2.834.937-4.453 2.514-4.453 1.577 0 2.514 1.619 2.514 4.453 0 2.839-.927 4.432-2.514 4.432zm9.652-9.887h-1.321l-2.727 1.811v1.343l2.663-1.769h.064v9.524h1.321v-10.909zm12.427 2.727h-5.05v8.182h1.257v-7.01h3.793v-1.172zm4.734 8.353c2.216 0 3.708-1.683 3.708-4.219 0-2.557-1.492-4.24-3.708-4.24s-3.707 1.683-3.707 4.24c0 2.536 1.491 4.219 3.707 4.219zm0-1.129c-1.683 0-2.45-1.449-2.45-3.09 0-1.641.767-3.111 2.45-3.111 1.683 0 2.45 1.47 2.45 3.111 0 1.641-.767 3.09-2.45 3.09zm4.753 3.302h1.257v-2.344h6.051v2.344h1.257v-3.516h-1.257v-7.01h-5.199l-.277 3.239c-.197 2.291-.49 3.079-1.15 3.771h-.682v3.516zm2.109-3.516c.576-.756.783-2.061.959-3.771l.213-2.067h2.77v5.838h-3.942zm10.533 1.364c1.427 0 2.173-.767 2.429-1.3h.063v1.108h1.258v-5.39c0-2.6-1.982-2.898-3.026-2.898-1.236 0-2.642.426-3.281 1.918l1.193.426c.277-.597.932-1.236 2.131-1.236 1.156 0 1.725.612 1.725 1.662v.042c0 .608-.617.554-2.109.746-1.518.197-3.175.533-3.175 2.408 0 1.598 1.236 2.514 2.792 2.514zm.191-1.129c-1.001 0-1.726-.448-1.726-1.321 0-.959.874-1.257 1.854-1.385.533-.064 1.96-.213 2.173-.469v1.151c0 1.022-.809 2.024-2.301 2.024z" fill="#fff"/><path d="M524.052 80.84h1.508l-4.362-6.205 4.219-4.864h-1.508l-4.178 4.8h-.55v-4.8h-1.264v11.07h1.264V75.76h1.284l3.587 5.08zm5.583.173c2.12 0 3.546-1.708 3.546-4.28 0-2.595-1.426-4.303-3.546-4.303s-3.546 1.708-3.546 4.303c0 2.572 1.426 4.28 3.546 4.28zm0-1.145c-1.61 0-2.344-1.47-2.344-3.135 0-1.665.734-3.157 2.344-3.157 1.61 0 2.344 1.492 2.344 3.157 0 1.664-.734 3.135-2.344 3.135zm9.662-.758l-2.69-6.572h-1.59v8.303h1.202v-6.47l2.589 6.47h.978l2.588-6.351v6.35h1.203v-8.302h-1.549l-2.731 6.573zm6.481 1.73h1.203v-7.113h3.75v7.114h1.202v-8.303h-6.155v8.303zm10.654.195c1.366 0 2.079-.778 2.324-1.319h.061v1.125h1.202v-5.47c0-2.638-1.895-2.94-2.894-2.94-1.182 0-2.527.431-3.138 1.945l1.141.432c.265-.605.892-1.254 2.038-1.254 1.106 0 1.651.622 1.651 1.687v.043c0 .616-.591.562-2.018.757-1.452.2-3.037.54-3.037 2.443 0 1.622 1.183 2.551 2.67 2.551zm.184-1.146c-.958 0-1.651-.454-1.651-1.34 0-.973.836-1.276 1.773-1.406.51-.064 1.875-.216 2.079-.475v1.167c0 1.038-.775 2.054-2.201 2.054zm6.801-7.351h-1.203v8.303h1.203v-3.546h3.75v3.546h1.202v-8.303h-1.202v3.568h-3.75v-3.568zm8.351 6.422v-6.422h-1.203v8.303h1.407l3.75-6.422v6.422h1.202v-8.303h-1.386l-3.77 6.422zm12.067 1.88h1.141v-8.302h-3.22c-1.687 0-2.711.935-2.711 2.465 0 1.14.54 1.951 1.483 2.292l-1.911 3.546h1.305l1.814-3.373h2.099v3.373zm0-4.561h-2.222c-.851 0-1.365-.481-1.365-1.276 0-.805.57-1.297 1.508-1.297h2.079v2.573zm7.547-6.509v11.07h1.182v-8.41h.102l3.261 8.41h1.142l3.26-8.41h.102v8.41h1.182V69.77h-1.508l-3.546 9.19h-.122l-3.547-9.19h-1.508zm15.883 11.243c1.59 0 2.752-.843 3.119-2.097l-1.162-.346c-.306.865-1.014 1.298-1.957 1.298-1.411 0-2.384-.968-2.44-2.746h5.681v-.54c0-3.092-1.732-4.152-3.363-4.152-2.119 0-3.526 1.773-3.526 4.324s1.386 4.26 3.648 4.26zm-2.44-4.994c.081-1.292.942-2.443 2.318-2.443 1.305 0 2.14 1.038 2.14 2.443h-4.458zm6.675 7.2h1.202V80.84h5.788v2.378h1.203V79.65h-1.203v-7.113h-4.973l-.265 3.287c-.188 2.324-.468 3.124-1.1 3.826h-.652v3.568zm2.017-3.568c.551-.767.749-2.091.918-3.826l.203-2.098h2.65v5.924h-3.771zm7.079 1.189h.408c1.732 0 2.231-1.426 2.343-4.15l.123-2.963h2.873v7.114h1.203v-8.303h-5.218l-.142 3.676c-.102 2.789-.367 3.437-1.305 3.437h-.285v1.19zm11.459.195c1.366 0 2.079-.778 2.324-1.319h.061v1.125h1.202v-5.47c0-2.638-1.895-2.94-2.894-2.94-1.182 0-2.527.431-3.138 1.945l1.141.432c.265-.605.892-1.254 2.038-1.254 1.106 0 1.651.622 1.651 1.687v.043c0 .616-.591.562-2.018.757-1.452.2-3.037.54-3.037 2.443 0 1.622 1.182 2.551 2.67 2.551zm.184-1.146c-.958 0-1.651-.454-1.651-1.34 0-.973.835-1.276 1.773-1.406.51-.064 1.875-.216 2.079-.475v1.167c0 1.038-.775 2.054-2.201 2.054zm5.109-1.167c.041 1.362 1.269 2.291 2.935 2.291 1.712 0 2.955-.972 2.955-2.486 0-1.038-.586-1.88-1.467-1.946v-.086c.744-.243 1.304-.816 1.304-1.752 0-1.313-1.06-2.313-2.711-2.313-1.63 0-2.792.951-2.833 2.292h1.264c.036-.687.713-1.168 1.631-1.168.912 0 1.426.492 1.426 1.233 0 .692-.448 1.21-1.406 1.21h-1.345v1.146h1.345c.958 0 1.569.557 1.569 1.384 0 .946-.789 1.34-1.752 1.34-.943 0-1.575-.394-1.631-1.145h-1.284zm11.615 5.232h1.202v-4.389h.102c.265.454.775 1.448 2.283 1.448 1.956 0 3.322-1.664 3.322-4.302 0-2.616-1.366-4.28-3.343-4.28-1.528 0-1.997.994-2.262 1.426h-.143v-1.319h-1.161v11.416zm1.182-7.265c0-1.859.774-3.113 2.242-3.113 1.528 0 2.282 1.362 2.282 3.113 0 1.773-.774 3.179-2.282 3.179-1.447 0-2.242-1.298-2.242-3.179zm9.864 4.346c1.366 0 2.079-.778 2.324-1.319h.061v1.125h1.202v-5.47c0-2.638-1.895-2.94-2.894-2.94-1.182 0-2.527.431-3.138 1.945l1.141.432c.265-.605.892-1.254 2.038-1.254 1.106 0 1.651.622 1.651 1.687v.043c0 .616-.591.562-2.018.757-1.452.2-3.037.54-3.037 2.443 0 1.622 1.182 2.551 2.67 2.551zm.184-1.146c-.958 0-1.651-.454-1.651-1.34 0-.973.835-1.276 1.773-1.406.51-.064 1.875-.216 2.079-.475v1.167c0 1.038-.775 2.054-2.201 2.054zM671.6 69.425c-.382.34-.953.34-1.753.335-.26 0-.545 0-.856.01-2.385.066-3.567 1.99-3.567 5.687v.887c0 3.07 1.407 4.67 3.506 4.67 2.094 0 3.485-1.611 3.485-4.216 0-2.617-1.411-4-3.241-4-1.075 0-2.078.475-2.608 1.513h-.102c.163-2.14.917-3.286 2.547-3.351 1.447-.065 2.487-.022 3.2-.757l-.611-.778zm-2.67 10.443c-1.427 0-2.303-1.211-2.303-3.07.025-1.817.886-2.855 2.282-2.855 1.432 0 2.304 1.038 2.304 2.855 0 1.87-.867 3.07-2.283 3.07zm8.504 1.145c2.12 0 3.546-1.708 3.546-4.28 0-2.595-1.426-4.303-3.546-4.303s-3.546 1.708-3.546 4.303c0 2.572 1.426 4.28 3.546 4.28zm0-1.145c-1.61 0-2.344-1.47-2.344-3.135 0-1.665.734-3.157 2.344-3.157 1.61 0 2.344 1.492 2.344 3.157 0 1.664-.734 3.135-2.344 3.135zm4.359-6.141h2.588v7.114h1.203v-7.114h2.568v-1.189h-6.359v1.19zm10.01 7.308c1.365 0 2.078-.778 2.323-1.319h.061v1.125h1.203v-5.47c0-2.638-1.896-2.94-2.894-2.94-1.183 0-2.528.431-3.139 1.945l1.141.432c.265-.605.892-1.254 2.038-1.254 1.106 0 1.651.622 1.651 1.687v.043c0 .616-.591.562-2.018.757-1.452.2-3.036.54-3.036 2.443 0 1.622 1.182 2.551 2.67 2.551zm.183-1.146c-.958 0-1.651-.454-1.651-1.34 0-.973.836-1.276 1.773-1.406.51-.064 1.875-.216 2.079-.475v1.167c0 1.038-.774 2.054-2.201 2.054zm8.88 1.124c1.59 0 2.751-.843 3.118-2.097l-1.162-.346c-.305.865-1.014 1.298-1.956 1.298-1.412 0-2.385-.968-2.441-2.746h5.681v-.54c0-3.092-1.732-4.152-3.362-4.152-2.12 0-3.526 1.773-3.526 4.324s1.386 4.26 3.648 4.26zm-2.441-4.994c.082-1.292.943-2.443 2.319-2.443 1.304 0 2.14 1.038 2.14 2.443h-4.459zm6.782-2.292h2.588v7.114h1.203v-7.114h2.568v-1.189h-6.359v1.19zm12.148 7.113h3.689c1.59 0 2.548-.95 2.548-2.226 0-1.303-.932-2.006-1.793-2.14.881-.195 1.508-.72 1.508-1.73 0-1.325-1.07-2.206-2.752-2.206h-3.2v8.303zm1.142-1.167v-2.551h2.547c.826 0 1.325.524 1.325 1.383 0 .725-.499 1.168-1.325 1.168h-2.547zm0-3.654v-2.313h2.058c.963 0 1.549.427 1.549 1.124 0 .74-.586 1.19-1.549 1.19h-2.058zm14.13 4.994c1.733 0 2.874-1.124 3.078-2.594h-1.203c-.224.908-.937 1.449-1.875 1.449-1.426 0-2.344-1.254-2.344-3.179 0-1.88.938-3.113 2.344-3.113 1.06 0 1.692.692 1.875 1.449h1.203c-.204-1.557-1.447-2.595-3.098-2.595-2.12 0-3.526 1.773-3.526 4.303 0 2.486 1.345 4.28 3.546 4.28zm8.015 2.66h1.203v-2.66c2.119 0 3.546-1.708 3.546-4.28 0-2.595-1.427-4.303-3.546-4.303v-2.66h-1.203v2.66c-2.119 0-3.546 1.708-3.546 4.303 0 2.572 1.427 4.28 3.546 4.28v2.66zm1.203-3.805v-6.292c1.61 0 2.343 1.492 2.343 3.157 0 1.664-.733 3.135-2.343 3.135zm-1.203 0c-1.61 0-2.344-1.47-2.344-3.135 0-1.665.734-3.157 2.344-3.157v6.292zm9.868 1.145c1.59 0 2.752-.843 3.119-2.097l-1.162-.346c-.306.865-1.014 1.298-1.957 1.298-1.411 0-2.384-.968-2.44-2.746h5.681v-.54c0-3.092-1.732-4.152-3.363-4.152-2.119 0-3.526 1.773-3.526 4.324s1.386 4.26 3.648 4.26zm-2.44-4.994c.081-1.292.942-2.443 2.318-2.443 1.305 0 2.14 1.038 2.14 2.443h-4.458zm7.51 7.935h1.203v-4.389h.102c.265.454.774 1.448 2.282 1.448 1.957 0 3.322-1.664 3.322-4.302 0-2.616-1.365-4.28-3.342-4.28-1.529 0-1.997.994-2.262 1.426h-.143v-1.319h-1.162v11.416zm1.182-7.265c0-1.859.775-3.113 2.242-3.113 1.529 0 2.283 1.362 2.283 3.113 0 1.773-.775 3.179-2.283 3.179-1.447 0-2.242-1.298-2.242-3.179zm10.843 4.324c1.59 0 2.752-.843 3.118-2.097l-1.161-.346c-.306.865-1.014 1.298-1.957 1.298-1.411 0-2.384-.968-2.441-2.746h5.682v-.54c0-3.092-1.733-4.152-3.363-4.152-2.12 0-3.526 1.773-3.526 4.324s1.386 4.26 3.648 4.26zm-2.441-4.994c.082-1.292.943-2.443 2.319-2.443 1.304 0 2.14 1.038 2.14 2.443h-4.459zm-243.13 23.387l-2.69-6.573h-1.59v8.302h1.203v-6.47l2.588 6.47h.978l2.589-6.35v6.35h1.202v-8.302h-1.549l-2.731 6.573zm9.763 1.902c1.589 0 2.751-.843 3.118-2.097l-1.162-.346c-.305.865-1.014 1.297-1.956 1.297-1.412 0-2.385-.967-2.441-2.746h5.681v-.54c0-3.092-1.732-4.151-3.363-4.151-2.119 0-3.526 1.773-3.526 4.324s1.386 4.259 3.649 4.259zm-2.441-4.994c.082-1.292.943-2.443 2.318-2.443 1.305 0 2.14 1.038 2.14 2.443h-4.458zm6.675 7.2h1.202v-2.379h5.789v2.379h1.202v-3.568h-1.202v-7.113h-4.973l-.265 3.286c-.189 2.325-.469 3.124-1.101 3.827h-.652v3.568zm2.018-3.568c.55-.767.749-2.092.917-3.827l.204-2.097h2.649v5.924h-3.77zm8.974-.692v-6.421h-1.203v8.302h1.406l3.751-6.421v6.421h1.202v-8.302h-1.386l-3.77 6.421zm13.514-6.421h-1.203v7.113h-3.75v-7.113h-1.203v8.302h6.054v2.681h1.202v-3.87h-1.1v-7.113zm4.155 6.421v-6.421h-1.203v8.302h1.407l3.75-6.421v6.421h1.202v-8.302h-1.386l-3.77 6.421zm8.561-6.421h-1.202v8.302h1.202v-3.546h3.75v3.546h1.203v-8.302h-1.203V96.4h-3.75v-3.567zm10.328 8.475c1.733 0 2.874-1.124 3.078-2.594h-1.203c-.224.908-.937 1.448-1.875 1.448-1.426 0-2.344-1.254-2.344-3.178 0-1.88.938-3.113 2.344-3.113 1.06 0 1.692.692 1.875 1.448h1.203c-.204-1.556-1.447-2.594-3.098-2.594-2.12 0-3.526 1.773-3.526 4.302 0 2.487 1.345 4.281 3.546 4.281zm4.836-.173h1.202v-3.502h1.08l2.568 3.502h1.549l-3.199-4.302 3.159-4h-1.549l-2.813 3.61h-.795v-3.61h-1.202v8.302zm8.909-1.881v-6.421h-1.203v8.302h1.407l3.75-6.421v6.421h1.202v-8.302h-1.386l-3.77 6.421zm8.255-6.421h-1.385l2.486 4.151-2.486 4.151h1.385l1.876-3.221 1.875 3.221h1.385l-2.527-4.15 2.527-4.152h-1.385l-1.875 3.394-1.876-3.394zm10.195 8.302h.407c1.733 0 2.232-1.427 2.344-4.15l.123-2.963h2.873v7.113h1.203v-8.302h-5.218l-.142 3.675c-.102 2.79-.367 3.438-1.305 3.438h-.285v1.189zm11.459.195c1.366 0 2.079-.778 2.324-1.319h.061v1.124h1.202v-5.47c0-2.638-1.895-2.94-2.894-2.94-1.182 0-2.527.432-3.139 1.946l1.142.432c.265-.605.891-1.254 2.038-1.254 1.106 0 1.651.622 1.651 1.686v.044c0 .616-.591.562-2.018.757-1.452.2-3.037.54-3.037 2.443 0 1.621 1.182 2.551 2.67 2.551zm.184-1.146c-.958 0-1.651-.454-1.651-1.34 0-.973.835-1.276 1.773-1.406.509-.065 1.875-.216 2.079-.475v1.167c0 1.038-.775 2.054-2.201 2.054zm5.109-1.168c.041 1.363 1.269 2.292 2.935 2.292 1.712 0 2.955-.973 2.955-2.486 0-1.038-.586-1.881-1.467-1.946v-.087c.743-.243 1.304-.816 1.304-1.75 0-1.314-1.06-2.314-2.711-2.314-1.63 0-2.792.951-2.833 2.292h1.264c.036-.687.713-1.168 1.63-1.168.912 0 1.427.492 1.427 1.233 0 .691-.448 1.21-1.406 1.21h-1.345v1.146h1.345c.958 0 1.569.557 1.569 1.384 0 .946-.79 1.34-1.753 1.34-.942 0-1.574-.394-1.63-1.146h-1.284zm10.86 2.292c1.59 0 2.752-.843 3.119-2.097l-1.162-.346c-.306.865-1.014 1.297-1.957 1.297-1.411 0-2.384-.967-2.44-2.746h5.681v-.54c0-3.092-1.732-4.151-3.363-4.151-2.119 0-3.526 1.773-3.526 4.324s1.386 4.259 3.648 4.259zm-2.44-4.994c.081-1.292.942-2.443 2.318-2.443 1.305 0 2.14 1.038 2.14 2.443h-4.458zm7.51 7.935h1.203v-4.39h.102c.265.455.774 1.449 2.282 1.449 1.957 0 3.322-1.665 3.322-4.302 0-2.616-1.365-4.281-3.342-4.281-1.529 0-1.997.994-2.262 1.427h-.143v-1.32h-1.162v11.417zm1.182-7.265c0-1.86.775-3.113 2.242-3.113 1.529 0 2.283 1.362 2.283 3.113 0 1.773-.774 3.178-2.283 3.178-1.447 0-2.242-1.297-2.242-3.178zm8.764-4.151h-1.202v8.302h1.202v-3.546h3.75v3.546h1.203v-8.302h-1.203V96.4h-3.75v-3.567zm8.351 3.005v-3.005h-1.202v8.302h3.281c1.835 0 2.833-1.189 2.833-2.68 0-1.514-.998-2.617-2.833-2.617h-2.079zm6.156 5.297h1.202v-8.302h-1.202v8.302zm-6.156-4.108h2.079c.953 0 1.631.617 1.631 1.492 0 .838-.678 1.427-1.631 1.427h-2.079v-2.919zm10.456-4.194h-1.386l2.487 4.151-2.487 4.151h1.386l1.875-3.221 1.875 3.221h1.386l-2.527-4.15 2.527-4.152h-1.386l-1.875 3.394-1.875-3.394zm11.662 11.416c1.085 0 1.849-.611 2.303-1.903l3.332-9.492-1.314-.021-2.161 6.616h-.081l-2.161-6.616h-1.304l2.894 8.346-.224.648c-.438 1.265-.978 1.384-1.855 1.146l-.306 1.124c.123.065.469.152.877.152zm10.125-2.941c1.733 0 2.874-1.124 3.078-2.594h-1.203c-.224.908-.937 1.448-1.875 1.448-1.426 0-2.343-1.254-2.343-3.178 0-1.88.937-3.113 2.343-3.113 1.06 0 1.692.692 1.875 1.448h1.203c-.204-1.556-1.447-2.594-3.098-2.594-2.12 0-3.526 1.773-3.526 4.302 0 2.487 1.345 4.281 3.546 4.281zm4.143-.173h.407c1.733 0 2.232-1.427 2.344-4.15l.123-2.963h2.873v7.113h1.203v-8.302h-5.218l-.142 3.675c-.102 2.79-.367 3.438-1.305 3.438h-.285v1.189zm9.65 3.114c1.086 0 1.85-.611 2.303-1.903l3.333-9.492-1.315-.021-2.16 6.616h-.082l-2.16-6.616h-1.305l2.895 8.346-.225.648c-.438 1.265-.978 1.384-1.854 1.146l-.306 1.124c.122.065.469.152.876.152zm12.057-11.416h-4.83v8.302h1.202v-7.113h3.628v-1.19zm11.599-3.113c-.382.34-.952.34-1.752.335-.26 0-.546 0-.856.01-2.385.065-3.567 1.99-3.567 5.687v.886c0 3.07 1.406 4.67 3.506 4.67 2.094 0 3.485-1.61 3.485-4.216 0-2.616-1.412-4-3.241-4-1.075 0-2.079.476-2.609 1.514h-.102c.163-2.14.918-3.286 2.548-3.351 1.447-.065 2.487-.022 3.2-.757l-.612-.779zm-2.669 10.442c-1.427 0-2.304-1.21-2.304-3.07.026-1.816.887-2.854 2.283-2.854 1.432 0 2.303 1.038 2.303 2.854 0 1.87-.866 3.07-2.282 3.07zm8.504 1.146c2.119 0 3.546-1.708 3.546-4.28 0-2.595-1.427-4.303-3.546-4.303-2.12 0-3.547 1.708-3.547 4.302 0 2.573 1.427 4.281 3.547 4.281zm0-1.146c-1.611 0-2.344-1.47-2.344-3.135 0-1.665.733-3.156 2.344-3.156 1.61 0 2.343 1.492 2.343 3.156 0 1.665-.733 3.135-2.343 3.135zm4.689.973h.407c1.733 0 2.232-1.427 2.344-4.15l.122-2.963h2.874v7.113h1.202v-8.302h-5.217l-.143 3.675c-.102 2.79-.367 3.438-1.304 3.438h-.285v1.189zm12.437.173c1.59 0 2.752-.843 3.118-2.097l-1.161-.346c-.306.865-1.014 1.297-1.957 1.297-1.411 0-2.385-.967-2.441-2.746h5.682v-.54c0-3.092-1.733-4.151-3.363-4.151-2.12 0-3.526 1.773-3.526 4.324s1.386 4.259 3.648 4.259zm-2.441-4.994c.082-1.292.943-2.443 2.319-2.443 1.304 0 2.14 1.038 2.14 2.443h-4.459zm10.792 4.994c1.59 0 2.752-.843 3.119-2.097l-1.162-.346c-.306.865-1.014 1.297-1.957 1.297-1.411 0-2.384-.967-2.44-2.746H771v-.54c0-3.092-1.733-4.151-3.363-4.151-2.12 0-3.526 1.773-3.526 4.324s1.386 4.259 3.648 4.259zm-2.44-4.994c.081-1.292.942-2.443 2.318-2.443 1.304 0 2.14 1.038 2.14 2.443h-4.458zm11.525 4.821h6.583v-1.189h-4.85v-.086l2.343-2.66c1.794-2.038 2.324-2.989 2.324-4.216 0-1.708-1.305-3.07-3.139-3.07-1.829 0-3.22 1.319-3.22 3.265h1.202c0-1.26.77-2.097 1.977-2.097 1.132 0 1.998.735 1.998 1.902 0 1.022-.566 1.779-1.773 3.178l-3.445 4v.973zm12.091.152c2.303 0 3.628-2.07 3.628-5.687 0-3.589-1.345-5.686-3.628-5.686-2.282 0-3.628 2.097-3.628 5.686 0 3.616 1.325 5.687 3.628 5.687zm0-1.19c-1.518 0-2.405-1.616-2.405-4.497 0-2.875.897-4.518 2.405-4.518 1.508 0 2.405 1.643 2.405 4.518 0 2.881-.886 4.497-2.405 4.497zm8.927 1.038h.408c1.732 0 2.232-1.427 2.344-4.15l.122-2.963h2.874v7.113h1.202v-8.302h-5.217l-.143 3.675c-.102 2.79-.367 3.438-1.304 3.438h-.286v1.189zm12.438.173c1.59 0 2.751-.843 3.118-2.097l-1.162-.346c-.305.865-1.014 1.297-1.956 1.297-1.412 0-2.385-.967-2.441-2.746h5.681v-.54c0-3.092-1.732-4.151-3.362-4.151-2.12 0-3.526 1.773-3.526 4.324s1.386 4.259 3.648 4.259zm-2.441-4.994c.082-1.292.943-2.443 2.319-2.443 1.304 0 2.14 1.038 2.14 2.443h-4.459zm6.782-2.292h2.588v7.113h1.203v-7.113H821v-1.19h-6.359v1.19z" fill="#7C7C7C"/></svg>