<svg width="36" height="36" fill="none" xmlns="http://www.w3.org/2000/svg"><circle cx="18" cy="18" r="18" fill="url(#paint0_linear)"/><path d="M18.002 14.83c-2.151 0-3.886 1.627-3.886 3.644 0 2.016 1.735 3.643 3.886 3.643 2.15 0 3.885-1.627 3.885-3.643 0-2.017-1.735-3.644-3.885-3.644zm0 6.012c-1.39 0-2.526-1.062-2.526-2.368 0-1.307 1.132-2.369 2.526-2.369 1.393 0 2.526 1.062 2.526 2.369 0 1.306-1.136 2.368-2.526 2.368zm4.95-6.16c0 .472-.405.85-.906.85-.504 0-.906-.381-.906-.85 0-.47.406-.85.906-.85s.906.38.906.85zm2.574.862c-.058-1.139-.335-2.147-1.224-2.978-.886-.83-1.962-1.09-3.176-1.148-1.25-.066-5.001-.066-6.252 0-1.21.054-2.286.314-3.176 1.145-.889.83-1.163 1.84-1.224 2.978-.07 1.173-.07 4.69 0 5.863.058 1.138.335 2.146 1.224 2.977.89.831 1.962 1.091 3.176 1.148 1.25.067 5.001.067 6.252 0 1.214-.054 2.29-.314 3.176-1.148.886-.83 1.163-1.839 1.224-2.977.07-1.174.07-4.687 0-5.86zm-1.617 7.119c-.264.621-.774 1.1-1.44 1.35-.998.371-3.365.286-4.467.286-1.103 0-3.473.082-4.467-.286a2.483 2.483 0 01-1.44-1.35c-.397-.936-.305-3.155-.305-4.19 0-1.033-.088-3.256.304-4.188.264-.622.774-1.1 1.44-1.35.998-.372 3.365-.286 4.468-.286 1.102 0 3.473-.083 4.467.285a2.484 2.484 0 011.44 1.35c.396.936.305 3.156.305 4.19 0 1.034.09 3.256-.305 4.189z" fill="#fff"/><defs><linearGradient id="paint0_linear" x1="18.947" y1="-1.421" x2="18" y2="36" gradientUnits="userSpaceOnUse"><stop stop-color="#AB30A7"/><stop offset="1" stop-color="#D5223E"/></linearGradient></defs></svg>