<svg width="195" height="18" fill="none" xmlns="http://www.w3.org/2000/svg"><path d="M149.502 3.545V13h1.071V5.817h.093L153.62 13h1.034l2.955-7.183h.092V13h1.071V3.545h-1.366l-3.213 7.848h-.111l-3.213-7.848h-1.367zm14.299 9.603c1.92 0 3.213-1.46 3.213-3.657 0-2.215-1.293-3.674-3.213-3.674-1.921 0-3.213 1.459-3.213 3.674 0 2.198 1.292 3.657 3.213 3.657zm0-.979c-1.459 0-2.124-1.256-2.124-2.678 0-1.421.665-2.696 2.124-2.696 1.458 0 2.123 1.275 2.123 2.696 0 1.422-.665 2.678-2.123 2.678zm5.324 3.49c.983 0 1.675-.522 2.086-1.625l3.019-8.106-1.191-.019-1.957 5.65h-.074l-1.957-5.65h-1.182l2.622 7.128-.203.554c-.397 1.08-.886 1.182-1.68.979l-.277.96c.11.055.424.13.794.13zm9.631-9.75h-1.514V4.21h-1.09v1.7h-1.071v.922h1.071v4.432c0 1.237.997 1.828 1.921 1.828.406 0 .664-.074.812-.129l-.222-.979c-.092.019-.24.056-.48.056-.48 0-.941-.148-.941-1.071V6.832h1.514V5.91zm4.443 7.239c1.921 0 3.213-1.46 3.213-3.657 0-2.215-1.292-3.674-3.213-3.674-1.92 0-3.213 1.459-3.213 3.674 0 2.198 1.293 3.657 3.213 3.657zm0-.979c-1.459 0-2.123-1.256-2.123-2.678 0-1.421.664-2.696 2.123-2.696s2.124 1.275 2.124 2.696c0 1.422-.665 2.678-2.124 2.678zm4.876 3.49h1.09v-3.748h.092c.24.387.702 1.237 2.068 1.237 1.773 0 3.01-1.422 3.01-3.675 0-2.234-1.237-3.656-3.028-3.656-1.385 0-1.81.85-2.05 1.219h-.129V5.909h-1.053v9.75zm1.071-6.204c0-1.589.702-2.66 2.032-2.66 1.384 0 2.068 1.164 2.068 2.66 0 1.514-.702 2.714-2.068 2.714-1.312 0-2.032-1.108-2.032-2.714zM9.636 6.5c-.351-1.939-1.902-3.084-3.804-3.084-2.42 0-4.174 1.865-4.174 4.857 0 2.991 1.755 4.856 4.174 4.856 1.902 0 3.453-1.145 3.804-3.083H8.49c-.277 1.31-1.404 2.012-2.66 2.012-1.717 0-3.065-1.33-3.065-3.785 0-2.456 1.348-3.786 3.066-3.786 1.255 0 2.382.702 2.659 2.013h1.145zm1.85 6.5h5.78v-1.016H12.63V8.771h4.265V7.756H12.63V4.56h4.56V3.545h-5.705V13zm15.747-4.727c0-2.992-1.755-4.857-4.174-4.857-2.419 0-4.173 1.865-4.173 4.857 0 2.991 1.754 4.856 4.173 4.856 2.42 0 4.174-1.865 4.174-4.856zm-1.108 0c0 2.456-1.349 3.785-3.066 3.785-1.717 0-3.065-1.33-3.065-3.785 0-2.456 1.348-3.786 3.065-3.786 1.717 0 3.066 1.33 3.066 3.786zM32.666 13h1.09V6.925h3.397V13h1.09V5.91h-5.577V13zm7.567 2.66h1.089v-3.75h.092c.24.388.702 1.238 2.069 1.238 1.772 0 3.01-1.422 3.01-3.675 0-2.234-1.238-3.656-3.029-3.656-1.385 0-1.81.85-2.05 1.219h-.129V5.909h-1.052v9.75zm1.07-6.205c0-1.589.702-2.66 2.032-2.66 1.385 0 2.068 1.164 2.068 2.66 0 1.514-.702 2.714-2.068 2.714-1.311 0-2.032-1.108-2.032-2.714zm9.732 3.693c1.92 0 3.213-1.46 3.213-3.657 0-2.215-1.292-3.674-3.213-3.674-1.92 0-3.213 1.459-3.213 3.674 0 2.198 1.293 3.657 3.213 3.657zm0-.979c-1.459 0-2.123-1.256-2.123-2.678 0-1.421.664-2.696 2.123-2.696S53.16 8.07 53.16 9.491c0 1.422-.665 2.678-2.124 2.678zm4.12 2.862h1.089V13h5.244v2.031h1.09v-3.047h-1.09V5.91h-4.506l-.24 2.807c-.17 1.985-.424 2.668-.997 3.268h-.59v3.047zm1.827-3.047c.499-.655.679-1.786.831-3.268l.185-1.791h2.4v5.06h-3.416zM64.023 13h3.343c1.44 0 2.308-.813 2.308-1.902 0-1.113-.845-1.713-1.625-1.828.799-.166 1.367-.614 1.367-1.477 0-1.131-.97-1.884-2.493-1.884h-2.9V13zm1.035-.997v-2.18h2.308c.748 0 1.2.449 1.2 1.183 0 .618-.452.997-1.2.997h-2.308zm0-3.12V6.905h1.865c.872 0 1.403.365 1.403.96 0 .633-.53 1.016-1.403 1.016h-1.865zm7.355 2.51V5.91h-1.09V13h1.275l3.397-5.484V13h1.09V5.91h-1.256l-3.416 5.483zM78.637 13h1.311l2.42-3.047h.553V13h1.09V9.953h.553L86.965 13h1.311l-2.862-3.6 2.825-3.49h-1.292l-2.364 3.027h-.572V5.91h-1.09v3.029h-.59L79.966 5.91h-1.292l2.844 3.49-2.881 3.6zm13.877.148c1.44 0 2.493-.72 2.825-1.791l-1.052-.296c-.277.739-.919 1.108-1.773 1.108-1.279 0-2.16-.826-2.211-2.345h5.147v-.462c0-2.64-1.57-3.545-3.047-3.545-1.92 0-3.194 1.514-3.194 3.693 0 2.179 1.255 3.638 3.305 3.638zm-2.211-4.266c.074-1.103.854-2.087 2.1-2.087 1.182 0 1.94.887 1.94 2.087h-4.04zm7.894-2.973h-1.09V13h1.09V9.972h3.398V13h1.089V5.91h-1.089v3.046h-3.398V5.909zm7.566 5.484V5.91h-1.089V13h1.274l3.398-5.484V13h1.089V5.91h-1.255l-3.417 5.483zm9.641 1.755c1.44 0 2.493-.72 2.825-1.791l-1.053-.296c-.276.739-.918 1.108-1.772 1.108-1.279 0-2.161-.826-2.212-2.345h5.148v-.462c0-2.64-1.57-3.545-3.047-3.545-1.92 0-3.195 1.514-3.195 3.693 0 2.179 1.256 3.638 3.306 3.638zm-2.212-4.266c.074-1.103.855-2.087 2.101-2.087 1.182 0 1.939.887 1.939 2.087h-4.04z" fill="#fff"/><path d="M141.796 11.419l-1.436-.834a6.553 6.553 0 000-2.377l1.436-.833a.41.41 0 00.185-.475 8.45 8.45 0 00-1.843-3.204.404.404 0 00-.499-.078l-1.435.833a6.366 6.366 0 00-2.049-1.188V1.6a.406.406 0 00-.317-.397 8.43 8.43 0 00-3.68 0 .405.405 0 00-.316.397v1.666a6.537 6.537 0 00-2.049 1.189l-1.432-.833a.4.4 0 00-.499.078 8.398 8.398 0 00-1.843 3.204c-.058.183.02.38.185.474l1.436.833a6.553 6.553 0 000 2.378l-1.436.833a.41.41 0 00-.185.474 8.45 8.45 0 001.843 3.204.404.404 0 00.499.078l1.435-.833a6.344 6.344 0 002.049 1.189v1.667c0 .19.131.355.317.396a8.425 8.425 0 003.679 0 .405.405 0 00.317-.396v-1.667a6.558 6.558 0 002.049-1.189l1.435.833a.4.4 0 00.499-.078 8.399 8.399 0 001.843-3.204.418.418 0 00-.188-.477zm-7.798.687a2.707 2.707 0 01-2.696-2.71c0-1.493 1.21-2.71 2.696-2.71a2.707 2.707 0 012.696 2.71c0 1.494-1.21 2.71-2.696 2.71z" fill="#F2F2F2"/></svg>