<svg width="19" height="21" fill="none" xmlns="http://www.w3.org/2000/svg"><path d="M18.458 14.84l-4.156-1.97a.812.812 0 00-.563-.05.885.885 0 00-.476.334l-1.84 2.485c-2.89-1.505-5.214-4.075-6.576-7.268l2.248-2.034a1 1 0 00.302-.527 1.07 1.07 0 00-.046-.621L5.571.595a.957.957 0 00-.418-.488.82.82 0 00-.603-.082l-3.86.984a.885.885 0 00-.496.347A1.043 1.043 0 000 1.967C0 12.49 7.715 21 17.219 21a.839.839 0 00.555-.214c.157-.138.268-.332.313-.549l.891-4.266c.046-.226.02-.462-.076-.669a.947.947 0 00-.444-.463z" fill="#fff"/></svg>