<svg width="16" height="24" fill="none" xmlns="http://www.w3.org/2000/svg"><path d="M8.021 0C4.392 0 2.041 1.533.196 4.267a1.15 1.15 0 00.236 1.54l1.961 1.534a1.07 1.07 0 001.512-.194c1.139-1.471 1.984-2.318 3.763-2.318 1.398 0 3.128.928 3.128 2.326 0 1.057-.846 1.6-2.227 2.398-1.61.931-3.742 2.09-3.742 4.988V15c0 .621.489 1.125 1.091 1.125h3.295c.603 0 1.092-.504 1.092-1.125v-.27c0-2.01 5.695-2.093 5.695-7.53C16 3.106 11.88 0 8.021 0zm-.455 17.506c-1.737 0-3.15 1.456-3.15 3.247 0 1.79 1.413 3.247 3.15 3.247 1.736 0 3.15-1.457 3.15-3.247 0-1.79-1.414-3.247-3.15-3.247z" fill="#3A9FE8"/></svg>