<svg width="37" height="36" fill="none" xmlns="http://www.w3.org/2000/svg"><circle cx="18.474" cy="18" r="18" fill="#8F5DB7"/><path d="M24.39 11.99c-.398-.369-2.008-1.542-5.598-1.558 0 0-4.232-.254-6.293 1.645-1.147 1.152-1.55 2.84-1.595 4.932-.043 2.091-.097 6.01 3.665 7.073h.004l-.004 1.623s-.025.658.408.79c.52.163.827-.337 1.325-.875.272-.295.648-.73.933-1.06 2.575.218 4.552-.28 4.777-.352.52-.17 3.462-.547 3.938-4.466.495-4.045-.238-6.598-1.56-7.753zm.435 7.457c-.404 3.27-2.788 3.478-3.226 3.62-.188.06-1.927.493-4.11.352 0 0-1.629 1.972-2.136 2.485-.166.166-.348.15-.345-.18 0-.217.013-2.695.013-2.695-.004 0-.004 0 0 0-3.19-.887-3.001-4.224-2.967-5.97.035-1.745.364-3.176 1.335-4.139 1.744-1.588 5.337-1.352 5.337-1.352 3.036.013 4.49.93 4.828 1.24 1.118.962 1.688 3.264 1.271 6.639zm-4.354-2.542c.013.27-.391.29-.404.02-.034-.693-.357-1.03-1.021-1.067-.27-.016-.244-.422.022-.406.874.047 1.36.55 1.403 1.453zm.636.356c.031-1.334-.799-2.378-2.374-2.494-.267-.02-.238-.425.028-.406 1.817.132 2.785 1.387 2.75 2.91-.003.27-.41.257-.404-.01zm1.472.421c.003.27-.404.274-.404.003-.018-2.563-1.72-3.96-3.784-3.975-.266-.003-.266-.406 0-.406 2.309.016 4.166 1.617 4.188 4.378zm-.354 3.085v.007c-.338.597-.97 1.258-1.622 1.047l-.007-.01c-.66-.185-2.217-.99-3.201-1.776a8.207 8.207 0 01-1.328-1.334 10.205 10.205 0 01-.965-1.466c-.667-1.21-.814-1.751-.814-1.751-.21-.655.444-1.29 1.043-1.63h.006c.288-.15.564-.1.749.123 0 0 .388.466.554.695.157.214.367.557.476.749.191.343.072.692-.116.836l-.376.302c-.19.154-.166.44-.166.44s.558 2.117 2.641 2.652c0 0 .285.025.439-.167l.3-.377c.145-.189.492-.308.834-.116.46.26 1.046.666 1.434 1.034.22.18.27.453.12.742z" fill="#fff"/></svg>