<svg width="139" height="54" fill="none" xmlns="http://www.w3.org/2000/svg"><g opacity=".75" fill="#fff"><path opacity=".75" d="M65.629 12.609h-4.087c-1.235 0-2.185.38-2.756 1.615l-7.792 17.77h5.512s.95-2.375 1.14-2.945h6.747c.19.665.665 2.85.665 2.85H70l-4.371-19.29zm-6.462 12.449c.475-1.14 2.09-5.417 2.09-5.417 0 .095.475-1.14.665-1.806l.38 1.711s1.046 4.656 1.236 5.607h-4.371v-.095zm-7.793.57c0 3.991-3.61 6.652-9.218 6.652-2.375 0-4.656-.475-5.892-1.045l.76-4.371.666.285c1.71.76 2.85 1.045 4.942 1.045 1.52 0 3.136-.57 3.136-1.9 0-.856-.666-1.426-2.756-2.376-1.996-.95-4.657-2.471-4.657-5.227 0-3.801 3.706-6.367 8.933-6.367 1.995 0 3.706.38 4.751.856l-.76 4.18-.38-.38c-.95-.38-2.185-.76-3.991-.76-1.996.095-2.946.95-2.946 1.711 0 .855 1.14 1.52 2.946 2.376 3.04 1.425 4.466 3.04 4.466 5.321zM5 12.8l.095-.38h8.173c1.14 0 1.995.38 2.28 1.615l1.806 8.553C15.548 18.026 11.367 14.32 5 12.8z"/><path opacity=".75" d="M28.852 12.61L20.585 31.9h-5.607l-4.752-16.154c3.421 2.185 6.272 5.606 7.318 7.982l.57 1.996 5.131-13.21h5.607v.096zm2.186-.095h5.226L32.938 31.9h-5.226l3.326-19.386z"/></g><path opacity=".75" d="M97 34c6.627 0 12-5.373 12-12s-5.373-12-12-12-12 5.373-12 12 5.373 12 12 12z" fill="#fff"/><path opacity=".5" d="M113 34c6.627 0 12-5.373 12-12s-5.373-12-12-12-12 5.373-12 12 5.373 12 12 12z" fill="#fff"/></svg>