<svg width="37" height="36" fill="none" xmlns="http://www.w3.org/2000/svg"><circle cx="18.421" cy="18" r="18" fill="#6695BD"/><path d="M25.633 13.991c.11-.42 0-.728-.532-.728H23.34c-.449 0-.655.265-.766.56 0 0-.897 2.453-2.164 4.044-.41.46-.598.607-.822.607-.111 0-.281-.148-.281-.567V13.99c0-.503-.126-.728-.497-.728h-2.768a.449.449 0 00-.449.453c0 .477.634.587.7 1.93v2.912c0 .637-.102.755-.326.755-.598 0-2.051-2.463-2.912-5.281-.173-.547-.344-.769-.795-.769h-1.761c-.503 0-.604.265-.604.56 0 .524.598 3.124 2.783 6.56C14.134 22.728 16.185 24 18.051 24c1.121 0 1.259-.282 1.259-.768 0-2.242-.102-2.453.46-2.453.26 0 .709.148 1.755 1.278C22.721 23.4 22.918 24 23.588 24h1.76c.503 0 .757-.282.61-.839-.334-1.17-2.597-3.58-2.699-3.74-.26-.377-.185-.544 0-.88.003-.003 2.153-3.399 2.374-4.55z" fill="#fff"/></svg>