<svg width="37" height="36" fill="none" xmlns="http://www.w3.org/2000/svg"><circle cx="18.947" cy="18" r="18" fill="#25D366"/><path d="M25.061 12.624c-1.506-1.421-3.512-2.203-5.643-2.203-4.4 0-7.981 3.37-7.981 7.511 0 1.323.366 2.616 1.064 3.756l-1.133 3.891 4.232-1.046a8.352 8.352 0 003.814.914h.003c4.397 0 8.057-3.37 8.057-7.511 0-2.007-.906-3.891-2.413-5.312zm-5.643 11.558a6.94 6.94 0 01-3.38-.87l-.24-.135-2.51.619.669-2.304-.158-.237a5.955 5.955 0 01-1.014-3.323c0-3.44 2.976-6.242 6.636-6.242 1.772 0 3.437.65 4.688 1.83 1.25 1.181 2.02 2.748 2.017 4.416 0 3.444-3.053 6.246-6.709 6.246zm3.637-4.676c-.197-.095-1.179-.549-1.362-.61-.183-.064-.316-.094-.45.095-.132.19-.513.61-.632.738-.115.125-.234.142-.431.047-1.172-.551-1.942-.984-2.715-2.233-.204-.331.205-.308.586-1.025.065-.125.033-.233-.018-.328-.05-.095-.449-1.019-.614-1.394-.162-.365-.327-.315-.45-.321-.115-.007-.248-.007-.38-.007a.76.76 0 00-.533.233c-.183.19-.697.643-.697 1.567 0 .923.715 1.817.812 1.942.1.125 1.406 2.02 3.408 2.835 1.266.514 1.762.558 2.395.47.384-.054 1.179-.453 1.344-.893.165-.44.165-.815.115-.893-.047-.085-.18-.132-.378-.223z" fill="#fff"/></svg>